<svg xmlns="http://www.w3.org/2000/svg" viewBox="0 0 300 300" style="enable-background:new 0 0 300 300" xml:space="preserve">
  <path d="M150.5 216.9c-1.5-1.02-8.86-6.26-13.81-13.52l-.25-.36-.39.19c-8.01 3.97-17.24 4.84-19.07 4.98-.79-1.64-4.55-9.85-5.2-18.62l-.03-.43-.43-.03c-8.92-.57-17.35-4.43-19.01-5.22.14-1.81.99-10.8 4.81-18.72l.19-.39-.36-.24c-7.44-4.95-12.81-12.51-13.85-14.03 1.02-1.5 6.26-8.86 13.52-13.81l.36-.25-.19-.39c-3.97-8.01-4.84-17.24-4.98-19.07 1.64-.79 9.85-4.55 18.62-5.2l.43-.03.03-.43c.57-8.92 4.43-17.35 5.22-19.01 1.81.14 10.8.99 18.72 4.81l.39.19.24-.36c4.95-7.44 12.5-12.81 14.03-13.85 1.5 1.02 8.86 6.26 13.81 13.52l.25.36.39-.19c8-3.97 17.24-4.84 19.07-4.98.79 1.64 4.54 9.85 5.19 18.62l.03.43.44.03c8.92.57 17.35 4.43 19.01 5.22-.14 1.81-.99 10.8-4.81 18.72l-.19.39.36.24c7.44 4.95 12.81 12.5 13.85 14.03-1.02 1.5-6.26 8.86-13.52 13.81l-.36.25.19.39c3.97 8 4.84 17.24 4.98 19.07-1.64.79-9.85 4.54-18.62 5.19l-.43.03-.03.44c-.57 8.92-4.43 17.35-5.22 19.01-1.81-.14-10.8-.99-18.72-4.81l-.39-.19-.24.36c-4.95 7.44-12.51 12.81-14.03 13.85z" style="fill:#ffe94d"/>
  <path d="M149.5 83.71c1.96 1.36 8.75 6.38 13.39 13.2l.49.72.78-.39c7.51-3.73 16.13-4.69 18.55-4.9 1.01 2.16 4.39 9.89 5 18.13l.06.87.87.06c8.37.53 16.32 4 18.51 5.03-.2 2.38-1.14 10.76-4.73 18.2l-.38.78.73.48c6.98 4.64 12.13 11.62 13.52 13.61-1.36 1.96-6.38 8.75-13.2 13.39l-.72.49.39.78c3.73 7.51 4.69 16.13 4.9 18.55-2.16 1.01-9.89 4.39-18.13 5l-.87.06-.06.87c-.53 8.37-4 16.32-5.03 18.51-2.38-.2-10.77-1.15-18.2-4.73l-.78-.38-.48.73c-4.64 6.98-11.62 12.13-13.61 13.52-1.96-1.36-8.75-6.38-13.39-13.2l-.49-.72-.78.39c-7.51 3.73-16.13 4.69-18.55 4.9-1.01-2.16-4.39-9.89-5-18.13l-.06-.87-.87-.06c-8.37-.53-16.32-4-18.51-5.03.2-2.38 1.15-10.77 4.73-18.2l.38-.78-.73-.48c-6.98-4.64-12.13-11.62-13.52-13.61 1.36-1.96 6.38-8.75 13.2-13.39l.72-.49-.39-.78c-3.73-7.51-4.69-16.13-4.9-18.55 2.16-1.01 9.89-4.39 18.13-5l.87-.06.06-.87c.53-8.37 4-16.32 5.03-18.51 2.38.2 10.77 1.15 18.2 4.73l.78.38.48-.73c4.64-6.99 11.62-12.13 13.61-13.52m0-1.21s-8.82 5.72-14.44 14.17c-9.01-4.35-19.24-4.88-19.24-4.88s-4.78 9.37-5.42 19.5c-9.98.74-19.1 5.39-19.1 5.39s.54 10.5 5.05 19.6c-8.27 5.63-13.85 14.22-13.85 14.22s5.72 8.82 14.17 14.44c-4.35 9.01-4.88 19.24-4.88 19.24s9.37 4.78 19.5 5.42c.74 9.98 5.39 19.1 5.39 19.1s10.5-.54 19.6-5.05c5.63 8.27 14.22 13.85 14.22 13.85s8.82-5.72 14.44-14.17c9.01 4.35 19.24 4.88 19.24 4.88s4.78-9.37 5.42-19.5c9.98-.74 19.1-5.39 19.1-5.39s-.54-10.5-5.05-19.6c8.27-5.63 13.85-14.22 13.85-14.22s-5.72-8.82-14.17-14.44c4.35-9.01 4.88-19.24 4.88-19.24s-9.37-4.78-19.5-5.42c-.74-9.98-5.39-19.1-5.39-19.1s-10.5.54-19.6 5.05c-5.63-8.27-14.22-13.85-14.22-13.85z" style="fill:#5b3a00"/>
  <g>
    <circle cx="150" cy="150" r="34.75" style="fill:#874a00"/>
    <path d="M150 115.75c18.89 0 34.25 15.36 34.25 34.25s-15.36 34.25-34.25 34.25-34.25-15.36-34.25-34.25 15.36-34.25 34.25-34.25m0-1c-19.47 0-35.25 15.78-35.25 35.25s15.78 35.25 35.25 35.25 35.25-15.78 35.25-35.25-15.78-35.25-35.25-35.25z" style="fill:#513400"/>
  </g>
</svg>