<svg xmlns="http://www.w3.org/2000/svg" viewBox="0 0 300 300" style="enable-background:new 0 0 300 300" xml:space="preserve">
  <path d="M163.72 96.35c-5.63-8.27-14.22-13.85-14.22-13.85s-8.82 5.72-14.44 14.17c-9.01-4.35-19.24-4.88-19.24-4.88s-4.78 9.37-5.42 19.5c-9.98.74-19.1 5.39-19.1 5.39s.54 10.5 5.05 19.6c-8.27 5.63-13.85 14.22-13.85 14.22s5.72 8.82 14.17 14.44c-4.35 9.01-4.88 19.24-4.88 19.24s9.37 4.78 19.5 5.42c.74 9.98 5.39 19.1 5.39 19.1s10.5-.54 19.6-5.05c5.63 8.27 14.22 13.85 14.22 13.85s8.82-5.72 14.44-14.17c9.01 4.35 19.24 4.88 19.24 4.88s4.78-9.37 5.42-19.5c9.98-.74 19.1-5.39 19.1-5.39s-.54-10.5-5.05-19.6c8.27-5.63 13.85-14.22 13.85-14.22s-5.72-8.82-14.17-14.44c4.35-9.01 4.88-19.24 4.88-19.24s-9.37-4.78-19.5-5.42c-.74-9.98-5.39-19.1-5.39-19.1s-11.01.96-20.02 5.3" style="fill:#ffe94d;stroke:#5b3a00;stroke-miterlimit:10"/>
  <circle cx="150" cy="150" r="34.75" style="fill:#874a00"/>
  <path d="M150 115.75c18.89 0 34.25 15.36 34.25 34.25s-15.36 34.25-34.25 34.25-34.25-15.36-34.25-34.25 15.36-34.25 34.25-34.25m0-1c-19.47 0-35.25 15.78-35.25 35.25s15.78 35.25 35.25 35.25 35.25-15.78 35.25-35.25-15.78-35.25-35.25-35.25z" style="fill:#513400"/>
</svg>